<?xml version="1.0" encoding="utf-8"?>
<!-- Generator: Adobe Illustrator 23.0.1, SVG Export Plug-In . SVG Version: 6.00 Build 0)  -->
<svg version="1.1"
	 id="svg2" xmlns:cc="http://creativecommons.org/ns#" xmlns:dc="http://purl.org/dc/elements/1.1/" xmlns:rdf="http://www.w3.org/1999/02/22-rdf-syntax-ns#" xmlns:svg="http://www.w3.org/2000/svg"
	 xmlns="http://www.w3.org/2000/svg" xmlns:xlink="http://www.w3.org/1999/xlink" x="0px" y="0px" viewBox="0 0 55.2 62.1"
	 style="enable-background:new 0 0 55.2 62.1;" xml:space="preserve">
<style type="text/css">
	.st0{fill:#0D0D0D;}
	.st1{fill:#39A2E1;}
	.st2{clip-path:url(#SVGID_2_);}
	.st3{fill:url(#path56_1_);}
</style>
<g id="g10" transform="matrix(1.3333333,0,0,-1.3333333,0,138.46133)">
	<g id="g12">
		<g>
			<g id="g14">
				<g id="g20" transform="translate(79.6021,65.8706)">
					<path id="path22" class="st0" d="M-39.2,12.2l1,3.3v22.4c-11.7,0-13-4.5-13-8.8V4.5c0-1.3-0.1-2.6-0.4-4
						C-45.3,1.7-41.3,5.5-39.2,12.2"/>
				</g>
				<path id="path24" class="st1" d="M10.4,98.7H7.8v2.6h2.6V98.7z"/>
				<path id="path26" class="st1" d="M13,94.8h-2.6v2.6H13V94.8z"/>
				<path id="path28" class="st1" d="M10.3,91.6H7.8v2.6h2.6V91.6z"/>
				<path id="path30" class="st1" d="M7.8,87.8H5.2v2.6h2.6V87.8z"/>
				<path id="path32" class="st1" d="M2.6,101.3H0v2.6h2.6V101.3z"/>
				<g id="g34" transform="translate(44.3853,72.9648)">
					<path id="path36" class="st1" d="M-39.2,12.2h2.6V6.5h2.6v9.5h2.6V-2.6c0-8.9,7.7-13.1,7.7-13.1c-13,0-20.7,7.9-20.7,18.4v21.1
						h2.6V9.7h2.6V12.2z"/>
				</g>
			</g>
		</g>
	</g>
	<g id="g38">
		<g>
			<defs>
				<path id="SVGID_1_" d="M22.5,65c-3.5,0.2-6.1,1-8.2,2.3l0,0c1.4-6.1,6.6-9,6.9-9.2l0,0l1.5-0.8c11.8,0.8,18.7,8.4,18.7,18.3l0,0
					v2.2C38.6,68.7,32.1,64.6,22.5,65"/>
			</defs>
			<clipPath id="SVGID_2_">
				<use xlink:href="#SVGID_1_"  style="overflow:visible;"/>
			</clipPath>
			<g id="g40" class="st2">
				<g id="g46">
					<g id="g48">
						
							<linearGradient id="path56_1_" gradientUnits="userSpaceOnUse" x1="-476.7285" y1="-230.9459" x2="-475.7284" y2="-230.9459" gradientTransform="matrix(36.076 0 0 36.076 17212.8047 8399.1709)">
							<stop  offset="0" style="stop-color:#656263"/>
							<stop  offset="1" style="stop-color:#A7A5A6"/>
						</linearGradient>
						<path id="path56" class="st3" d="M22.5,65c-3.5,0.2-6.1,1-8.2,2.3l0,0c1.4-6.1,6.6-9,6.9-9.2l0,0l1.5-0.8
							c11.8,0.8,18.7,8.4,18.7,18.3l0,0v2.2C38.6,68.7,32.1,64.6,22.5,65"/>
					</g>
				</g>
			</g>
		</g>
	</g>
	<path id="path58" class="st1" d="M7.8,96.1H5.2v2.6h2.6V96.1z"/>
</g>
</svg>
